<?xml version="1.0" encoding="iso-8859-1"?>
<!-- Generator: Adobe Illustrator 21.1.0, SVG Export Plug-In . SVG Version: 6.00 Build 0)  -->
<svg version="1.1" id="Layer_1" xmlns="http://www.w3.org/2000/svg" xmlns:xlink="http://www.w3.org/1999/xlink" x="0px" y="0px"
	 viewBox="0 0 600 600" style="enable-background:new 0 0 600 600; fill: #1DB954;" xml:space="preserve">
<path d="M516.309,357.405H363.685c-42.079,0-76.312,34.234-76.312,76.312s34.234,76.312,76.312,76.312
	c0,10.439,2.111,20.393,5.922,29.463c-23.013,5.332-51.259,8.693-75.875,8.693c-56.153,0-107.999-18.769-149.618-50.349
	c27.399-18.788,37.051-53.501,25.231-83.047c-29.563-73.913-29.565-155.326,0.001-229.239c11.87-29.677,2.054-64.334-25.233-83.045
	c41.618-31.578,93.465-50.348,149.618-50.348c20.774,0,44.085,2.414,64.693,6.37c21.146,4.703,41.306,12.055,60.098,21.716
	c5.742-13.673,20.146-23.635,35.079-23.726c-20.404-12.388-42.451-22.323-65.727-29.408c0.064-0.031,0.124-0.066,0.188-0.097
	c-1.821-0.498-3.664-0.981-5.521-1.452c-21.135-5.988-43.236-9.655-66.028-10.64c0.001,0.003,0.003,0.007,0.004,0.01
	c-8.08-0.611-15.774-0.93-22.786-0.93C135.568,14,7.562,141.991,7.562,300.171c0,158.165,127.991,286.171,286.17,286.171
	c28.785,0,69.765-4.458,101.872-14.301c12.518,8.987,27.842,14.301,44.393,14.301c42.079,0,76.312-34.234,76.312-76.312
	c42.079,0,76.312-34.234,76.312-76.312S558.388,357.405,516.309,357.405z M133.921,428.961c7.15,17.88-3.331,36.776-20.177,41.663
	c-42.14-44.475-68.026-104.496-68.026-170.453c0-65.958,25.886-125.979,68.026-170.453c16.832,4.883,27.333,23.765,20.178,41.663
	C100.701,254.43,100.699,345.907,133.921,428.961z M439.997,548.185c-21.039,0-38.156-17.117-38.156-38.156h76.312
	C478.153,531.068,461.036,548.185,439.997,548.185z M516.309,471.873H363.685c-21.039,0-38.156-17.117-38.156-38.156
	c0-21.039,17.117-38.156,38.156-38.156h152.624c21.039,0,38.156,17.117,38.156,38.156
	C554.466,454.756,537.349,471.873,516.309,471.873z"/>
<path d="M402.821,58.892c-6.995,6.917-12.76,15.301-16.761,24.944c-38.866-16.126-83.605,2.374-99.731,41.24
	s2.374,83.605,41.24,99.731l140.972,58.491c38.866,16.126,83.605-2.374,99.731-41.24s-2.374-83.605-41.24-99.731
	c16.126-38.866-2.374-83.605-41.24-99.731c-15.287-6.343-31.478-7.308-46.484-3.804C423.679,43.146,410.002,52.157,402.821,58.892z
	 M471.169,77.838c19.433,8.063,28.683,30.433,20.62,49.866l-70.486-29.246C429.366,79.025,451.736,69.775,471.169,77.838z
	 M512.409,177.569c19.433,8.063,28.683,30.433,20.62,49.866s-30.433,28.683-49.866,20.62l-140.972-58.491
	c-19.433-8.063-28.683-30.433-20.62-49.866s30.433-28.683,49.866-20.62L512.409,177.569z"/>
<g>
</g>
<g>
</g>
<g>
</g>
<g>
</g>
<g>
</g>
<g>
</g>
<g>
</g>
<g>
</g>
<g>
</g>
<g>
</g>
<g>
</g>
<g>
</g>
<g>
</g>
<g>
</g>
<g>
</g>
</svg>
