<?xml version="1.0" encoding="iso-8859-1"?>
<!-- Generator: Adobe Illustrator 21.1.0, SVG Export Plug-In . SVG Version: 6.00 Build 0)  -->
<svg version="1.1" xmlns="http://www.w3.org/2000/svg" xmlns:xlink="http://www.w3.org/1999/xlink" x="0px" y="0px"
	 viewBox="-193 197 800 400" style="enable-background:new -193 197 800 400; fill: #1DB954;" xml:space="preserve">
<g id="Layer_1" style="display:none;">
	<path style="display:inline;" d="M108.963,287.457c-2.955,2.922-5.39,6.464-7.08,10.537c-16.417-6.812-35.316,1.003-42.128,17.42
		c-6.812,16.417,1.003,35.316,17.42,42.128l59.548,24.707c16.417,6.812,35.316-1.003,42.128-17.42
		c6.812-16.417-1.003-35.316-17.42-42.128c6.812-16.417-1.003-35.316-17.42-42.128c-6.457-2.679-13.297-3.087-19.636-1.607
		C117.773,280.806,111.996,284.613,108.963,287.457z M137.834,295.46c8.209,3.406,12.116,12.855,8.71,21.064l-29.774-12.354
		C120.176,295.962,129.625,292.055,137.834,295.46z M155.254,337.588c8.209,3.406,12.116,12.855,8.71,21.064
		c-3.406,8.209-12.855,12.116-21.064,8.71l-59.548-24.707c-8.209-3.406-12.116-12.855-8.71-21.064
		c3.406-8.209,12.855-12.116,21.064-8.71L155.254,337.588z"/>
	<g style="display:inline;">
		<path d="M240.5,461.207c-1.385,1.271-3.109,2.628-5.168,4.071s-4.283,2.771-6.67,3.984s-4.82,2.223-7.305,3.031
			c-2.482,0.809-4.84,1.213-7.072,1.213c-2.002,0-3.688-0.278-5.053-0.837c-1.367-0.558-2.475-1.338-3.32-2.339
			c-0.848-1.001-1.455-2.224-1.82-3.667s-0.547-3.031-0.547-4.764c0-2.426,0.277-5.245,0.836-8.46
			c0.559-3.214,1.242-6.544,2.051-9.989s1.664-6.881,2.568-10.308c0.904-3.426,1.705-6.583,2.396-9.471
			c0.27-1,0.809-1.856,1.617-2.569c0.809-0.712,1.723-1.289,2.744-1.732c1.02-0.441,2.078-0.77,3.176-0.981
			c1.096-0.211,2.088-0.317,2.973-0.317c1.617,0,2.715,0.299,3.291,0.895c0.578,0.598,0.867,1.396,0.867,2.396
			c0,0.848-0.193,2.07-0.578,3.667c-0.385,1.598-0.865,3.407-1.443,5.428c-0.576,2.021-1.193,4.196-1.848,6.525
			c-0.654,2.33-1.27,4.658-1.848,6.987s-1.059,4.601-1.443,6.813c-0.385,2.214-0.578,4.206-0.578,5.977
			c0,1.732,0.193,3.109,0.578,4.129c0.385,1.021,1.174,1.53,2.367,1.53c1.387,0,2.926-0.48,4.619-1.443
			c1.693-0.962,3.408-2.127,5.141-3.494c1.732-1.365,3.426-2.78,5.08-4.244c1.656-1.462,3.119-2.714,4.389-3.753V461.207z
			 M214.689,401.846c0-0.885,0.191-1.886,0.576-3.003c0.385-1.117,1.012-2.166,1.877-3.147c0.867-0.981,2.021-1.81,3.465-2.483
			c1.443-0.673,3.242-1.011,5.398-1.011c1.348,0,2.619,0.154,3.812,0.462c1.191,0.309,2.232,0.78,3.117,1.415
			c0.885,0.636,1.588,1.473,2.107,2.512c0.52,1.04,0.779,2.273,0.779,3.697c0,1.309-0.211,2.579-0.635,3.811
			c-0.424,1.232-1.096,2.33-2.021,3.292c-0.924,0.962-2.088,1.742-3.492,2.338c-1.406,0.598-3.09,0.896-5.053,0.896
			c-3.389,0-5.891-0.799-7.508-2.396C215.498,406.63,214.689,404.502,214.689,401.846z"/>
		<path d="M260.25,467.443c-2.079,1.848-4.245,3.341-6.497,4.476c-2.252,1.136-4.437,1.703-6.554,1.703
			c-1.848,0-3.647-0.375-5.399-1.126c-1.752-0.75-3.301-1.828-4.648-3.233s-2.425-3.118-3.233-5.14
			c-0.809-2.021-1.213-4.302-1.213-6.843c0-2.887,0.404-5.851,1.213-8.893c0.809-3.04,1.925-6.015,3.35-8.921
			c1.424-2.906,3.108-5.649,5.053-8.229c1.943-2.579,4.07-4.831,6.38-6.757c2.311-1.924,4.744-3.454,7.305-4.591
			c2.561-1.135,5.169-1.703,7.825-1.703c0.885,0,1.578,0.173,2.078,0.52s0.914,0.742,1.242,1.184c0.326,0.443,0.644,0.877,0.952,1.3
			c0.308,0.424,0.693,0.731,1.155,0.924c0.462,0.193,0.933,0.317,1.415,0.375c0.48,0.058,0.972,0.087,1.472,0.087
			c0.424,0,0.856-0.009,1.3-0.029c0.442-0.019,0.875-0.028,1.299-0.028c0.578,0,1.116,0.058,1.617,0.173
			c0.5,0.115,0.942,0.366,1.328,0.751c0.385,0.385,0.683,0.924,0.895,1.617c0.212,0.692,0.318,1.637,0.318,2.829
			c0,1.002-0.078,2.349-0.231,4.042c-0.154,1.694-0.366,3.58-0.635,5.659c-0.271,2.079-0.568,4.283-0.896,6.611
			c-0.327,2.33-0.664,4.611-1.011,6.843c-0.808,5.312-1.731,10.991-2.771,17.035c1.155-0.654,2.405-1.463,3.754-2.426
			c1.347-0.962,2.848-2.252,4.504-3.868c1.654-1.617,3.502-3.647,5.543-6.093c2.04-2.444,4.331-5.494,6.872-9.152l2.771,12.819
			c-0.692,1.193-1.588,2.416-2.685,3.667c-1.098,1.251-2.311,2.503-3.639,3.753c-1.328,1.252-2.714,2.465-4.157,3.639
			s-2.858,2.28-4.244,3.32c-3.272,2.463-6.795,4.85-10.567,7.16c-0.731,4.118-1.598,8.132-2.599,12.039s-2.186,7.564-3.551,10.972
			c-1.367,3.407-2.927,6.534-4.678,9.384c-1.752,2.849-3.734,5.293-5.947,7.333c-2.215,2.04-4.688,3.628-7.421,4.765
			c-2.733,1.135-5.755,1.703-9.065,1.703c-1.31,0-2.724-0.136-4.244-0.404c-1.521-0.27-2.926-0.809-4.216-1.617
			c-1.289-0.808-2.357-1.963-3.204-3.464c-0.847-1.502-1.271-3.504-1.271-6.006c0-1.732,0.442-3.687,1.328-5.861
			s2.099-4.466,3.638-6.871c1.539-2.406,3.368-4.908,5.485-7.507s4.418-5.188,6.9-7.767c2.483-2.58,5.082-5.12,7.796-7.622
			c2.714-2.503,5.457-4.89,8.229-7.161L260.25,467.443z M238.941,516.007c1.617,0,3.147-0.472,4.591-1.415
			c1.444-0.943,2.772-2.185,3.984-3.725c1.213-1.54,2.319-3.291,3.32-5.254c1.001-1.964,1.886-3.976,2.656-6.035
			c0.77-2.06,1.424-4.07,1.964-6.034c0.538-1.963,0.962-3.715,1.271-5.255c-1.502,1.001-3.032,2.194-4.591,3.58
			c-1.56,1.387-3.081,2.878-4.562,4.476c-1.482,1.597-2.887,3.243-4.215,4.938c-1.328,1.693-2.493,3.32-3.493,4.879
			c-1.002,1.56-1.791,3.012-2.368,4.36c-0.577,1.347-0.866,2.463-0.866,3.349C236.632,515.294,237.401,516.007,238.941,516.007z
			 M247.488,454.798c0,0.963,0.066,1.896,0.202,2.801c0.134,0.904,0.375,1.713,0.722,2.425c0.347,0.713,0.809,1.29,1.386,1.732
			c0.577,0.443,1.309,0.664,2.194,0.664c1.424,0,2.714-0.615,3.869-1.848c1.154-1.231,2.155-2.714,3.002-4.446
			s1.53-3.522,2.051-5.37c0.52-1.849,0.855-3.388,1.01-4.62l3.522-16.977c-1.579,0-3.118,0.396-4.619,1.184
			c-1.502,0.789-2.916,1.857-4.244,3.205s-2.551,2.887-3.667,4.619c-1.117,1.732-2.079,3.552-2.888,5.457
			c-0.808,1.905-1.435,3.821-1.876,5.745C247.709,451.295,247.488,453.104,247.488,454.798z"/>
		<path d="M325.097,461.207c-1.386,1.271-3.109,2.628-5.168,4.071c-2.06,1.443-4.283,2.771-6.67,3.984s-4.821,2.223-7.305,3.031
			c-2.482,0.809-4.841,1.213-7.073,1.213c-2.002,0-3.687-0.278-5.053-0.837c-1.367-0.558-2.475-1.338-3.32-2.339
			c-0.848-1.001-1.454-2.224-1.819-3.667c-0.366-1.443-0.548-3.031-0.548-4.764c0-2.426,0.278-5.245,0.837-8.46
			c0.558-3.214,1.241-6.544,2.05-9.989s1.665-6.881,2.569-10.308c0.904-3.426,1.704-6.583,2.396-9.471
			c0.27-1,0.809-1.856,1.617-2.569c0.809-0.712,1.723-1.289,2.743-1.732c1.02-0.441,2.078-0.77,3.176-0.981
			c1.097-0.211,2.088-0.317,2.974-0.317c1.617,0,2.714,0.299,3.291,0.895c0.578,0.598,0.866,1.396,0.866,2.396
			c0,0.848-0.192,2.07-0.577,3.667c-0.385,1.598-0.866,3.407-1.443,5.428c-0.577,2.021-1.194,4.196-1.848,6.525
			c-0.655,2.33-1.271,4.658-1.849,6.987c-0.577,2.329-1.059,4.601-1.443,6.813c-0.385,2.214-0.577,4.206-0.577,5.977
			c0,1.732,0.192,3.109,0.577,4.129c0.385,1.021,1.174,1.53,2.368,1.53c1.386,0,2.925-0.48,4.619-1.443
			c1.693-0.962,3.407-2.127,5.14-3.494c1.732-1.365,3.426-2.78,5.081-4.244c1.655-1.462,3.118-2.714,4.389-3.753V461.207z
			 M299.285,401.846c0-0.885,0.191-1.886,0.577-3.003c0.385-1.117,1.011-2.166,1.877-3.147s2.021-1.81,3.465-2.483
			c1.443-0.673,3.242-1.011,5.398-1.011c1.348,0,2.618,0.154,3.812,0.462c1.192,0.309,2.232,0.78,3.118,1.415
			c0.885,0.636,1.588,1.473,2.107,2.512c0.52,1.04,0.779,2.273,0.779,3.697c0,1.309-0.212,2.579-0.635,3.811
			c-0.424,1.232-1.097,2.33-2.021,3.292c-0.924,0.962-2.088,1.742-3.493,2.338c-1.405,0.598-3.089,0.896-5.053,0.896
			c-3.388,0-5.89-0.799-7.507-2.396C300.094,406.63,299.285,404.502,299.285,401.846z"/>
		<path d="M317.532,475.701c0-0.193,0.048-1.367,0.145-3.522c0.096-2.155,0.278-5.023,0.548-8.604
			c0.27-3.581,0.636-7.709,1.098-12.387c0.462-4.677,1.068-9.623,1.819-14.84c0.75-5.217,1.636-10.567,2.656-16.054
			c1.02-5.485,2.231-10.827,3.638-16.023c1.404-5.197,3.012-10.096,4.821-14.697c1.81-4.6,3.84-8.623,6.092-12.068
			s4.765-6.169,7.536-8.171s5.812-3.003,9.124-3.003c1.308,0,2.685,0.23,4.128,0.693c1.444,0.462,2.762,1.212,3.956,2.252
			c1.192,1.039,2.185,2.416,2.974,4.128c0.788,1.714,1.184,3.821,1.184,6.323c0,2.272-0.356,4.88-1.068,7.824
			c-0.713,2.945-1.713,6.093-3.003,9.441c-1.29,3.35-2.811,6.834-4.562,10.453c-1.752,3.619-3.667,7.228-5.745,10.827
			c-2.079,3.6-4.265,7.142-6.555,10.625c-2.29,3.484-4.629,6.747-7.016,9.787l-0.115,0.924c0.77-0.384,1.347-0.635,1.732-0.75
			c0.384-0.116,0.788-0.174,1.212-0.174c0.5,0,0.904,0.049,1.213,0.145c0.308,0.097,0.587,0.202,0.838,0.317
			c0.249,0.116,0.51,0.223,0.779,0.318c0.269,0.096,0.597,0.144,0.981,0.144c3.812,0,7.18-0.451,10.105-1.356
			c2.925-0.904,5.389-1.915,7.392-3.031c2.348-1.271,4.388-2.752,6.12-4.447l-1.27,14.032c-2.541,1.386-5.197,2.464-7.969,3.233
			c-2.772,0.771-5.333,1.349-7.681,1.732c-2.733,0.425-5.447,0.693-8.142,0.809c1.386,2.541,2.636,5.179,3.753,7.911
			c0.962,2.349,1.838,4.976,2.628,7.882c0.788,2.907,1.184,5.843,1.184,8.807c0,0.347-0.049,1.077-0.145,2.194
			c-0.097,1.116-0.26,2.482-0.491,4.1c-0.23,1.617-0.558,3.407-0.981,5.37c-0.424,1.964-0.973,3.945-1.646,5.948
			c-0.674,2.001-1.492,3.936-2.454,5.803c-0.963,1.867-2.089,3.522-3.378,4.966c-1.29,1.444-2.771,2.607-4.446,3.494
			c-1.675,0.885-3.571,1.328-5.688,1.328s-3.965-0.482-5.543-1.443c-1.579-0.963-2.926-2.263-4.042-3.898
			c-1.117-1.637-2.05-3.542-2.801-5.717s-1.338-4.475-1.762-6.9c-0.424-2.425-0.722-4.899-0.895-7.42
			C317.619,480.484,317.532,478.049,317.532,475.701z M332.95,447.983c-0.154,0-0.328,0.434-0.52,1.3
			c-0.193,0.866-0.376,1.983-0.549,3.349c-0.174,1.367-0.338,2.897-0.491,4.591c-0.154,1.694-0.288,3.359-0.404,4.995
			c-0.115,1.637-0.212,3.157-0.288,4.562c-0.078,1.406-0.116,2.512-0.116,3.32c0,5.659,0.105,10.163,0.318,13.513
			c0.211,3.349,0.48,5.89,0.808,7.622s0.693,2.858,1.098,3.378s0.817,0.779,1.241,0.779c1.309,0,2.357-0.597,3.147-1.79
			c0.788-1.193,1.386-2.705,1.79-4.532c0.404-1.829,0.673-3.831,0.809-6.006c0.134-2.175,0.202-4.264,0.202-6.266
			c0-1.348-0.106-3.002-0.318-4.966c-0.212-1.963-0.5-4.013-0.866-6.149s-0.789-4.264-1.27-6.381
			c-0.482-2.117-0.982-4.014-1.502-5.688c-0.52-1.675-1.049-3.032-1.588-4.071S333.412,447.983,332.95,447.983z M346.981,384.984
			c-2.232,5.544-3.984,10.423-5.254,14.639c-1.271,4.215-2.233,7.959-2.888,11.23c-0.655,3.273-1.117,6.15-1.386,8.633
			c-0.27,2.483-0.54,4.784-0.809,6.901c2.348-4.427,4.715-8.786,7.103-13.079c2.387-4.293,4.542-8.277,6.468-11.953
			c1.924-3.676,3.493-6.92,4.706-9.731c1.213-2.81,1.818-4.946,1.818-6.409c0-2.04-0.288-3.532-0.866-4.476
			c-0.577-0.943-1.366-1.415-2.367-1.415c-1.771,0-3.118,0.472-4.042,1.415S347.713,383.098,346.981,384.984z"/>
		<path d="M392.311,429.159c0.309-1.309,0.856-2.474,1.646-3.494c0.788-1.02,1.693-1.876,2.714-2.569
			c1.02-0.692,2.088-1.213,3.205-1.559c1.115-0.347,2.174-0.521,3.176-0.521c1.192,0,2.194,0.261,3.003,0.78
			c0.808,0.52,1.212,1.338,1.212,2.454c0,0.347-0.058,0.75-0.173,1.212c-0.231,1.002-0.52,2.368-0.866,4.101
			s-0.722,3.695-1.126,5.89s-0.818,4.514-1.241,6.958c-0.425,2.445-0.829,4.88-1.213,7.305c-0.963,5.698-1.944,11.819-2.945,18.363
			c1.155-0.654,2.405-1.463,3.754-2.426c1.347-0.962,2.848-2.252,4.504-3.868c1.654-1.617,3.502-3.647,5.543-6.093
			c2.04-2.444,4.331-5.494,6.872-9.152l2.771,12.819c-0.692,1.193-1.588,2.416-2.685,3.667c-1.098,1.251-2.311,2.503-3.639,3.753
			c-1.328,1.252-2.714,2.465-4.157,3.639s-2.858,2.28-4.244,3.32c-3.272,2.463-6.795,4.85-10.567,7.16
			c-0.731,4.118-1.598,8.132-2.599,12.039s-2.186,7.564-3.551,10.972c-1.367,3.407-2.927,6.534-4.678,9.384
			c-1.752,2.849-3.734,5.293-5.947,7.333c-2.215,2.04-4.688,3.628-7.421,4.765c-2.733,1.135-5.755,1.703-9.065,1.703
			c-1.31,0-2.724-0.136-4.244-0.404c-1.521-0.27-2.926-0.809-4.216-1.617c-1.289-0.808-2.357-1.963-3.204-3.464
			c-0.847-1.502-1.271-3.504-1.271-6.006c0-1.732,0.442-3.687,1.328-5.861s2.099-4.466,3.638-6.871
			c1.539-2.406,3.368-4.908,5.485-7.507s4.418-5.188,6.9-7.767c2.483-2.58,5.082-5.12,7.796-7.622
			c2.714-2.503,5.457-4.89,8.229-7.161l1.56-5.37c-2.079,1.848-4.245,3.341-6.497,4.476c-2.252,1.136-4.437,1.703-6.554,1.703
			c-1.848,0-3.647-0.375-5.399-1.126c-1.752-0.75-3.301-1.828-4.648-3.233s-2.425-3.118-3.233-5.14
			c-0.809-2.021-1.213-4.302-1.213-6.843c0-3.349,0.164-6.429,0.491-9.239c0.326-2.81,0.799-5.485,1.415-8.026
			c0.615-2.54,1.386-4.994,2.31-7.362c0.924-2.367,1.982-4.764,3.176-7.189c0.885-1.731,2.155-3.05,3.812-3.955
			c1.654-0.904,3.271-1.357,4.851-1.357c1.347,0,2.502,0.338,3.464,1.011c0.962,0.674,1.444,1.724,1.444,3.147
			c0,0.424-0.049,0.886-0.145,1.386c-0.097,0.501-0.26,1.039-0.491,1.617c-0.692,1.771-1.377,3.859-2.05,6.265
			c-0.674,2.406-1.271,4.871-1.79,7.392c-0.52,2.521-0.934,4.995-1.241,7.42c-0.309,2.426-0.462,4.562-0.462,6.41
			c0,0.963,0.066,1.896,0.202,2.801c0.134,0.904,0.375,1.713,0.722,2.425c0.347,0.713,0.809,1.29,1.386,1.732
			c0.577,0.443,1.309,0.664,2.194,0.664c1.424,0,2.714-0.615,3.869-1.848c1.154-1.231,2.155-2.714,3.002-4.446
			s1.53-3.522,2.051-5.37c0.52-1.849,0.855-3.388,1.01-4.62L392.311,429.159z M365.286,516.007c1.617,0,3.147-0.472,4.591-1.415
			c1.444-0.943,2.772-2.185,3.984-3.725c1.213-1.54,2.319-3.291,3.32-5.254c1.001-1.964,1.886-3.976,2.656-6.035
			c0.77-2.06,1.424-4.07,1.964-6.034c0.538-1.963,0.962-3.715,1.271-5.255c-1.502,1.001-3.032,2.194-4.591,3.58
			c-1.56,1.387-3.081,2.878-4.562,4.476c-1.482,1.597-2.887,3.243-4.215,4.938c-1.328,1.693-2.493,3.32-3.493,4.879
			c-1.002,1.56-1.791,3.012-2.368,4.36c-0.577,1.347-0.866,2.463-0.866,3.349C362.977,515.294,363.746,516.007,365.286,516.007z"/>
	</g>
	<path style="display:inline;" d="M421.988,459.506l-7.014-6.426c-2.028-1.858-2.167-5.037-0.309-7.064l19.745-21.551
		c1.858-2.028,5.037-2.167,7.064-0.309l7.014,6.426c2.028,1.858,2.167,5.037,0.309,7.064l-19.745,21.551
		C427.195,461.225,424.016,461.364,421.988,459.506z"/>
	<path style="display:inline;" d="M428.047,445.853L428.047,445.853c-1.978-1.812-2.114-4.914-0.301-6.892l28.01-30.572
		c1.812-1.978,4.914-2.114,6.892-0.301l0,0c1.978,1.812,2.114,4.914,0.301,6.892l-28.01,30.572
		C433.127,447.529,430.026,447.665,428.047,445.853z"/>
	<path style="display:inline;" d="M460.621,410.299L460.621,410.299c-1.978-1.812-2.114-4.914-0.301-6.892l1.854-2.023
		c1.812-1.978,4.914-2.114,6.892-0.301l0,0c1.978,1.812,2.114,4.914,0.301,6.892l-1.854,2.023
		C465.701,411.976,462.6,412.112,460.621,410.299z"/>
	<path style="display:inline;" d="M156.902,411.729H92.431c-17.775,0-32.235,14.461-32.235,32.235s14.461,32.235,32.235,32.235
		c0,4.41,0.892,8.614,2.501,12.445c-9.721,2.252-21.652,3.672-32.05,3.672c-23.72,0-45.62-7.928-63.201-21.268
		c11.574-7.936,15.651-22.6,10.658-35.08c-12.488-31.222-12.488-65.612,0.001-96.834c5.014-12.536,0.868-27.175-10.659-35.079
		c17.58-13.339,39.481-21.268,63.201-21.268c8.775,0,18.622,1.02,27.327,2.691c8.932,1.986,17.448,5.092,25.386,9.173
		c2.426-5.776,8.51-9.984,14.818-10.022c-8.619-5.233-17.932-9.43-27.764-12.422c0.027-0.013,0.053-0.028,0.08-0.041
		c-0.769-0.211-1.548-0.414-2.332-0.613c-8.928-2.53-18.263-4.079-27.891-4.494c0.001,0.001,0.001,0.003,0.002,0.004
		c-3.413-0.258-6.663-0.393-9.625-0.393C-3.929,266.67-58,320.735-58,387.552c0,66.811,54.065,120.882,120.882,120.882
		c12.159,0,29.47-1.883,43.032-6.041c5.288,3.796,11.761,6.041,18.752,6.041c17.775,0,32.235-14.461,32.235-32.235
		c17.775,0,32.235-14.461,32.235-32.235S174.676,411.729,156.902,411.729z M-4.624,441.955c3.02,7.553-1.407,15.535-8.523,17.599
		c-17.8-18.787-28.735-44.14-28.735-72.002c0-27.862,10.935-53.215,28.735-72.002c7.11,2.063,11.546,10.039,8.524,17.599
		C-18.657,368.231-18.657,406.872-4.624,441.955z M124.667,492.317c-8.887,0-16.118-7.23-16.118-16.118h32.235
		C140.784,485.087,133.554,492.317,124.667,492.317z M156.902,460.082H92.431c-8.887,0-16.118-7.23-16.118-16.118
		s7.23-16.118,16.118-16.118h64.471c8.887,0,16.118,7.23,16.118,16.118S165.789,460.082,156.902,460.082z"/>
</g>
<g id="Layer_8_copy" style="display:none;">
	<g style="display:inline;">
		<path d="M47.963,349.66h-64.471c-17.775,0-32.235,14.461-32.235,32.235s14.461,32.235,32.235,32.235
			c0,4.41,0.892,8.614,2.501,12.445c-9.721,2.252-21.652,3.672-32.05,3.672c-23.72,0-45.62-7.928-63.201-21.268
			c11.574-7.936,15.651-22.6,10.658-35.08c-12.488-31.222-12.488-65.612,0.001-96.834c5.014-12.536,0.868-27.175-10.659-35.079
			c17.58-13.339,39.481-21.268,63.201-21.268c8.775,0,18.622,1.02,27.327,2.691c8.932,1.986,17.448,5.092,25.386,9.173
			c2.426-5.776,8.51-9.984,14.818-10.022c-8.619-5.233-17.932-9.43-27.764-12.422c0.027-0.013,0.053-0.028,0.08-0.041
			c-0.769-0.211-1.548-0.414-2.332-0.613c-8.928-2.53-18.263-4.079-27.891-4.494c0.001,0.001,0.001,0.003,0.002,0.004
			c-3.413-0.258-6.663-0.393-9.625-0.393c-66.811,0-120.882,54.065-120.882,120.882c0,66.811,54.065,120.882,120.882,120.882
			c12.159,0,29.47-1.883,43.032-6.041c5.288,3.796,11.761,6.041,18.752,6.041c17.775,0,32.235-14.461,32.235-32.235
			c17.775,0,32.235-14.461,32.235-32.235S65.737,349.66,47.963,349.66z M-113.563,379.886c3.02,7.553-1.407,15.535-8.523,17.599
			c-17.8-18.787-28.735-44.14-28.735-72.002c0-27.862,10.935-53.215,28.735-72.002c7.11,2.063,11.546,10.039,8.524,17.599
			C-127.596,306.162-127.597,344.803-113.563,379.886z M15.727,430.248c-8.887,0-16.118-7.23-16.118-16.118h32.235
			C31.845,423.017,24.615,430.248,15.727,430.248z M47.963,398.012h-64.471c-8.887,0-16.118-7.23-16.118-16.118
			s7.23-16.118,16.118-16.118h64.471c8.887,0,16.118,7.23,16.118,16.118S56.85,398.012,47.963,398.012z"/>
		<path d="M0.024,223.564c-2.955,2.922-5.39,6.464-7.08,10.537c-16.417-6.812-35.316,1.003-42.128,17.42s1.003,35.316,17.42,42.128
			l59.548,24.707c16.417,6.812,35.316-1.003,42.128-17.42c6.812-16.417-1.003-35.316-17.42-42.128
			c6.812-16.417-1.003-35.316-17.42-42.128c-6.457-2.679-13.297-3.087-19.636-1.607C8.834,216.913,3.057,220.719,0.024,223.564z
			 M28.895,231.567c8.209,3.406,12.116,12.855,8.71,21.064L7.831,240.277C11.237,232.068,20.686,228.161,28.895,231.567z
			 M46.315,273.695c8.209,3.406,12.116,12.855,8.71,21.064c-3.406,8.209-12.855,12.116-21.064,8.71l-59.548-24.707
			c-8.209-3.406-12.116-12.855-8.71-21.064c3.406-8.209,12.855-12.116,21.064-8.71L46.315,273.695z"/>
		<g>
			<path d="M120.399,329.11c4.729,0,8.802-1.675,12.104-4.979c3.304-3.304,4.979-7.376,4.979-12.105c0-2.354-0.443-4.596-1.32-6.667
				c-0.869-2.047-2.101-3.876-3.66-5.44c-1.561-1.557-3.39-2.787-5.439-3.658c-2.069-0.876-4.312-1.32-6.664-1.32
				s-4.595,0.444-6.667,1.321c-2.051,0.872-3.881,2.102-5.438,3.659c-1.562,1.562-2.793,3.393-3.658,5.438
				c-0.877,2.063-1.321,4.306-1.321,6.667c0,4.731,1.676,8.804,4.979,12.104C111.594,327.435,115.666,329.11,120.399,329.11z
				 M122.601,314.063c-0.653,0.622-1.353,0.912-2.202,0.912c-0.837,0-1.478-0.268-2.081-0.873c-0.601-0.599-0.868-1.239-0.868-2.076
				c0-0.849,0.29-1.549,0.913-2.203c0.597-0.627,1.225-0.906,2.036-0.906c0.824,0,1.511,0.302,2.159,0.95
				c0.657,0.657,0.95,1.323,0.95,2.159C123.508,312.838,123.229,313.465,122.601,314.063z"/>
			<path d="M289.158,329.11c4.729,0,8.802-1.675,12.104-4.979c3.304-3.304,4.979-7.376,4.979-12.105c0-2.354-0.443-4.596-1.32-6.667
				c-0.869-2.047-2.101-3.876-3.66-5.44c-1.561-1.557-3.39-2.787-5.439-3.658c-2.069-0.876-4.312-1.32-6.664-1.32
				s-4.595,0.444-6.667,1.321c-2.051,0.872-3.881,2.102-5.438,3.659c-1.561,1.562-2.792,3.393-3.657,5.438
				c-0.877,2.063-1.321,4.306-1.321,6.667c0,4.731,1.676,8.804,4.979,12.104C280.354,327.435,284.426,329.11,289.158,329.11z
				 M291.361,314.063c-0.653,0.622-1.353,0.912-2.202,0.912c-0.837,0-1.478-0.268-2.081-0.873c-0.601-0.599-0.868-1.239-0.868-2.076
				c0-0.849,0.29-1.549,0.913-2.203c0.597-0.627,1.225-0.906,2.036-0.906c0.824,0,1.511,0.302,2.159,0.95
				c0.657,0.657,0.95,1.323,0.95,2.159C292.268,312.838,291.989,313.465,291.361,314.063z"/>
			<g>
				<path d="M519.272,392.949l-10.868-7.558c-2.258-1.57-2.82-4.702-1.25-6.96l24.55-35.3c1.57-2.258,4.702-2.82,6.96-1.25
					l10.868,7.558c2.258,1.57,2.82,4.702,1.25,6.96l-24.55,35.3C524.661,393.957,521.529,394.52,519.272,392.949z"/>
				<path style="stroke:#000000;stroke-width:4;stroke-miterlimit:10;" d="M530.25,367.203l-1.529-1.064
					c-2.203-1.532-2.751-4.587-1.22-6.79l33.938-48.799c1.532-2.203,4.587-2.751,6.79-1.22l1.529,1.064
					c2.203,1.532,2.751,4.587,1.22,6.79l-33.938,48.799C535.508,368.186,532.452,368.735,530.25,367.203z"/>
				<path style="stroke:#000000;stroke-width:4;stroke-miterlimit:10;" d="M569.85,308.63L569.85,308.63
					c-2.111-1.468-2.637-4.397-1.169-6.509l3.748-5.39c1.468-2.111,4.397-2.637,6.509-1.169l0,0
					c2.111,1.468,2.637,4.397,1.169,6.509l-3.748,5.39C574.89,309.573,571.961,310.099,569.85,308.63z"/>
			</g>
			<path d="M520.138,384.903c-1.24-1.817-3.229-2.777-5.754-2.777c-1.632,0-3.229,0.42-4.753,1.25
				c-1.556,0.854-2.879,2.112-3.914,3.714c-3.37,5.09-7.074,9.963-11.009,14.484c-3.962,4.55-8.183,8.979-12.546,13.166
				c-4.398,4.217-8.915,8.296-13.429,12.125c-2.713,2.302-5.402,4.575-8.068,6.82c1.549-6.193,3.117-12.171,4.684-17.839
				c2.115-7.65,4.034-14.403,5.702-20.069c0.255-0.868,0.574-2.042,0.924-3.41c0.948-3.359,2.024-7.176,2.623-9.336l3.167-11.463
				c1.207-4.385,1.468-5.497,1.56-5.976c0.426-2.212,0.062-4.192-1.084-5.889c-1.199-1.768-3.056-2.702-5.372-2.702
				c-2.495,0-4.729,0.812-6.64,2.415c-1.8,1.509-3.058,3.307-3.753,5.382c-1.679,5.276-3.596,13.106-5.264,19.153
				c-4.64,23.913-17.162,40.913-32.993,41.125c-3.947,0.053-6.416-1.251-7.581-3.825c-1.307-2.881-1.445-7.062-0.413-12.426
				c0.875-4.545,5.723-21.826,6.823-25.795l3.167-11.463c1.207-4.385,1.468-5.497,1.56-5.976c0.426-2.212,0.062-4.192-1.084-5.889
				c-1.199-1.768-3.056-2.702-5.372-2.702c-2.495,0-4.729,0.812-6.64,2.415c-1.8,1.509-3.058,3.307-3.753,5.382
				c-1.127,3.539-2.36,8.228-3.554,12.757v0c-5.612,16.334-25.624,32.87-31.505,37.8c-4.241,3.344-8.82,6.591-13.652,9.712
				c-1.254,0.793-2.566,1.612-3.922,2.459c-5.736,3.489-11.89,6.695-18.388,9.537c0.502-2.512,1.057-5.239,1.66-8.154
				c0.125-0.608,0.251-1.229,0.377-1.844c-0.103,0.115-0.213,0.224-0.319,0.337c0.548-2.757,1.097-5.561,1.644-8.4l5.536-28.763
				c7.764-10.4,15.32-21.093,22.465-31.787c7.314-10.952,14.094-22.314,20.153-33.771c6.077-11.484,11.496-23.517,16.11-35.763
				c4.623-12.279,8.248-25.157,10.773-38.275c1.208-6.277,1.943-12.388,2.184-18.163c0.243-5.87-0.222-11.08-1.382-15.488
				c-1.2-4.554-3.257-8.255-6.117-11.002c-2.992-2.869-7.069-4.323-12.12-4.323c-6.491,0-12.466,2.969-17.759,8.824
				c-4.915,5.44-9.519,13.38-13.684,23.6c-4.074,9.993-8.045,22.408-11.8,36.9c-3.73,14.39-7.572,30.985-11.419,49.312
				c-2.054,9.556-4.195,19.838-6.365,30.561c-2.174,10.738-4.385,21.664-6.629,32.775c-0.177,0.874-0.353,1.753-0.53,2.628
				c-0.158,0.2-0.323,0.392-0.471,0.605c-4.515,6.521-9.024,12.513-13.4,17.811c-4.353,5.267-8.576,9.827-12.556,13.554
				c-3.91,3.664-7.613,6.538-11.007,8.543c-3.124,1.848-5.966,2.784-8.443,2.784c-1.547,0-3.148-0.282-4.757-0.841
				c-1.454-0.502-2.776-1.563-3.929-3.155c-1.194-1.649-2.005-4.062-2.411-7.175c-0.419-3.204-0.107-7.556,0.928-12.934
				c0.792-4.114,1.804-8.68,3.008-13.569c1.212-4.928,2.443-9.646,3.657-14.026l3.167-11.463c1.207-4.385,1.468-5.497,1.56-5.976
				c0.426-2.212,0.062-4.192-1.084-5.889c-1.199-1.768-3.056-2.702-5.372-2.702c-2.495,0-4.729,0.812-6.64,2.415
				c-1.8,1.509-3.058,3.307-3.753,5.382c-2.821,8.862-6.313,24.932-8.166,27.652c-10.547,15.481-25.814,33-47.731,56.249
				c1.009-4.821,1.36-7.168,2.527-11.811c1.472-5.856,6.117-18.891,9.233-28.153c3.542-7.77,5.387-15.715,5.29-23.149
				c-0.155-11.777-5.067-20.912-13.831-25.723c-8.764-4.812-20.113-4.604-31.957,0.584c-11.073,4.851-21.354,13.592-28.949,24.614
				c-5.158,7.485-8.699,15.482-10.399,23.292c-3.468,9.366-6.786,11.928-9.703,15.05c-3.653,3.91-7.613,6.538-11.007,8.543
				c-3.124,1.848-5.966,2.784-8.443,2.784c-1.547,0-3.148-0.282-4.757-0.841c-1.454-0.502-2.776-1.563-3.929-3.155
				c-1.194-1.649-2.005-4.062-2.411-7.175c-0.419-3.204-0.107-7.556,0.928-12.934c0.792-4.114,1.804-8.68,3.008-13.569
				c1.212-4.928,2.443-9.646,3.657-14.026l3.167-11.463c1.207-4.385,1.468-5.497,1.56-5.976c0.426-2.212,0.062-4.192-1.084-5.889
				c-1.199-1.768-3.056-2.702-5.371-2.702c-2.495,0-4.729,0.812-6.64,2.415c-1.8,1.509-3.058,3.307-3.753,5.382
				c-4.875,15.315-8.851,30.896-11.818,46.31c-1.066,5.536-1.429,10.793-1.081,15.623c0.353,4.931,1.538,9.285,3.52,12.941
				c1.998,3.691,4.793,6.678,8.304,8.876c3.564,2.231,8.016,3.362,13.233,3.362c4.112,0,8.402-1.005,12.752-2.988
				c4.186-1.911,8.358-4.434,12.401-7.497c3.179-2.41,6.315-5.106,9.36-8.019c2.34,4.961,5.978,8.906,10.783,11.544
				c4.209,2.311,9.013,3.464,14.183,3.464c5.595,0,11.619-1.352,17.775-4.048c2.8-1.227,5.548-2.703,8.216-4.401
				c-0.816,3.812-1.643,7.812-2.478,11.992c-0.721,3.61-1.457,7.259-2.202,10.922c-3.409,3.443-6.848,7.151-10.27,11.076
				c-4.833,5.539-9.575,11.461-14.094,17.6c-4.512,6.127-8.869,12.498-12.951,18.936c-4.103,6.469-7.831,12.939-11.084,19.23
				c-3.268,6.316-6.081,12.539-8.365,18.494c-2.3,5.999-3.98,11.71-4.994,16.976c-1.911,9.928-1.207,17.831,2.093,23.488
				c3.413,5.854,9.384,8.821,17.746,8.821c5.075,0,9.838-1.302,14.161-3.871c4.168-2.482,8.086-5.908,11.645-10.183
				c3.477-4.177,6.662-9.157,9.466-14.805c2.75-5.541,5.257-11.562,7.45-17.896c2.176-6.28,4.17-12.961,5.931-19.857
				c1.756-6.896,3.311-13.849,4.624-20.669c1.598-8.304,2.922-16.306,3.933-23.784c0.578-4.288,1.324-8.601,2.195-12.9
				c14.529-14.493,27.149-26.222,37.285-38.132c2.828-3.323,5.523-6.58,8.083-9.766c0.018,0.366,0.032,0.734,0.058,1.096
				c0.353,4.931,1.538,9.285,3.52,12.941c1.998,3.691,4.793,6.678,8.304,8.876c3.564,2.231,8.016,3.362,13.233,3.362
				c4.112,0,8.402-1.005,12.752-2.988c4.186-1.911,8.358-4.434,12.401-7.497c3.979-3.016,7.897-6.464,11.644-10.249
				c2.015-2.037,3.967-4.097,5.852-6.163l-5.295,26.806c0.083-0.062,0.17-0.118,0.254-0.179c-1.752,8.761-3.465,17.431-5.096,25.796
				l-4.514,23.159c-2.6,13.34-4.903,25.843-6.842,37.161c-1.967,11.464-2.954,21.586-2.933,30.081
				c0.021,8.717,1.425,15.694,4.175,20.738c2.954,5.413,8.107,8.166,15.319,8.184c4.895,0.012,9.605-1.407,14.002-4.219
				c4.226-2.709,8.134-6.452,11.614-11.127c3.401-4.568,6.379-10.001,8.854-16.147c2.44-6.072,4.356-12.63,5.693-19.493
				c1.459-7.486,2.267-15.428,2.4-23.604c0.132-8.161-0.463-16.362-1.768-24.378c-1.306-8.019-3.43-15.852-6.312-23.282
				c-2.507-6.456-5.722-12.475-9.574-17.934c7.532-3.343,14.563-6.983,20.979-10.861c0.003-0.002,0.007-0.003,0.011-0.006
				c0.015-0.01,0.032-0.021,0.048-0.03c0.874-0.529,1.738-1.061,2.589-1.598c5.658-3.575,10.936-7.289,15.781-11.084
				c-0.045-0.011-0.088-0.027-0.133-0.039c6.61-5.164,12.778-10.85,15.163-15.593c-2.964,13.667-0.692,17.284,1.62,20.837
				c3.911,6.013,10.384,9.062,19.239,9.062c5.428,0,10.8-1.671,15.969-4.966c2.395-1.527,4.684-3.301,6.854-5.308
				c-0.537,2.16-1.076,4.367-1.616,6.61c-1.255,5.2-2.453,10.235-3.594,15.104c-4.547,4.376-9.182,9.265-13.784,14.544
				c-4.833,5.539-9.575,11.461-14.094,17.6c-4.512,6.127-8.869,12.498-12.951,18.936c-4.103,6.469-7.831,12.939-11.084,19.23
				c-3.268,6.316-6.081,12.539-8.365,18.494c-2.3,5.999-3.98,11.71-4.994,16.976c-1.911,9.928-1.207,17.831,2.093,23.488
				c3.413,5.854,9.384,8.821,17.746,8.821c5.075,0,9.838-1.302,14.161-3.871c4.168-2.482,8.086-5.908,11.645-10.183
				c3.477-4.177,6.662-9.157,9.466-14.805c2.75-5.541,5.257-11.562,7.45-17.896c2.176-6.28,4.17-12.961,5.931-19.857
				c1.756-6.896,3.311-13.849,4.624-20.669c1.598-8.304,2.922-16.306,3.933-23.784c0.944-7.004,2.289-14.078,4.001-21.04
				c5.045-4.637,10.353-9.316,15.791-13.919c5.776-4.89,11.58-9.984,17.253-15.143c5.733-5.214,11.391-10.805,16.82-16.62
				c5.483-5.878,10.656-12.433,15.376-19.482l0.058-0.091c0.656-1.057,1.106-2.197,1.335-3.39
				C521.717,388.658,521.33,386.648,520.138,384.903z M356.543,352.129c0.745-3.602,1.487-7.036,2.205-10.211
				c0.722-3.205,1.439-6.509,2.131-9.818c0.689-3.304,1.497-7.09,2.438-11.419c0.389-2.021,0.998-5.055,1.832-9.103
				c0.82-3.99,1.832-8.693,3.01-13.979c1.172-5.257,2.511-10.954,3.978-16.932c1.48-6.025,3.076-12.088,4.745-18.022
				c1.669-5.941,3.454-11.745,5.308-17.252c1.832-5.441,3.743-10.299,5.679-14.438c1.878-4.017,3.804-7.245,5.724-9.594
				c2.184-2.672,3.553-2.672,4.004-2.672c1.336,0,2.359,0.538,3.216,1.689c1.034,1.396,1.759,3.415,2.155,6.002
				c0.422,2.755,0.481,6.163,0.175,10.128c-0.313,4.053-0.96,8.647-1.924,13.656c-1.941,10.084-4.645,20.261-8.038,30.246
				c-3.4,10-7.393,19.929-11.867,29.512c-4.485,9.594-9.477,19.02-14.837,28.013c-3.344,5.611-6.819,11.097-10.387,16.397
				C356.245,353.569,356.396,352.835,356.543,352.129z M187.454,423.864c-6.579,2.882-12.646,3.129-17.082,0.693
				c-4.435-2.435-6.925-7.379-7.011-13.921c-0.096-7.31,2.749-15.542,8.013-23.181c5.263-7.639,12.21-13.619,19.562-16.839
				c3.581-1.568,7.009-2.356,10.105-2.356c2.594,0,4.954,0.553,6.976,1.663c4.436,2.435,6.925,7.379,7.012,13.921
				c0.096,7.31-2.749,15.542-8.014,23.181C201.753,414.664,194.806,420.644,187.454,423.864z M182.513,534.199
				c-2.659,8.933-5.541,16.631-8.565,22.88c-2.941,6.074-6.019,10.778-9.148,13.981c-2.797,2.862-5.489,4.253-8.228,4.253
				c-3.06,0-4.908-1.104-5.819-3.478c-1.058-2.75-1.096-6.724-0.117-11.812c1.007-5.233,2.962-11.3,5.81-18.029
				c2.878-6.799,6.5-14.022,10.765-21.469c4.27-7.458,9.175-15.079,14.578-22.651c3.693-5.18,7.576-10.232,11.595-15.094
				c-0.403,2.436-0.79,4.818-1.157,7.132c-0.736,4.65-1.553,9.312-2.428,13.858C187.645,514.959,185.194,525.196,182.513,534.199z
				 M344.754,499.483c1.118,6.839,1.603,13.846,1.439,20.828c-0.163,6.99-0.873,13.751-2.109,20.095
				c-0.478,2.453-1.329,5.737-2.529,9.756c-1.181,3.947-2.7,7.874-4.518,11.671c-1.751,3.658-3.843,6.851-6.218,9.49
				c-2.001,2.224-4.047,3.257-6.44,3.251c-0.887-0.002-3.586-0.009-4.685-5.561c-0.898-4.541-1.058-10.642-0.474-18.137
				c0.594-7.639,1.788-16.368,3.551-25.944c1.767-9.611,3.645-19.523,5.583-29.461c0.958-4.917,2.03-10.274,3.184-15.925
				c0.782-3.836,1.593-7.871,2.42-12.056c2.195,3.738,4.082,7.777,5.635,12.069C341.897,485.938,343.634,492.641,344.754,499.483z
				 M422.503,533.492c-2.659,8.933-5.541,16.631-8.565,22.88c-2.941,6.074-6.019,10.778-9.148,13.981
				c-2.797,2.862-5.488,4.253-8.228,4.253c-3.06,0-4.909-1.104-5.819-3.478c-1.058-2.75-1.096-6.724-0.117-11.812
				c1.007-5.233,2.962-11.3,5.81-18.029c2.878-6.799,6.5-14.022,10.765-21.469c4.27-7.458,9.175-15.079,14.578-22.651
				c3.693-5.18,7.576-10.232,11.595-15.094c-0.403,2.436-0.79,4.818-1.157,7.132c-0.736,4.65-1.553,9.312-2.428,13.858
				C427.635,514.252,425.184,524.489,422.503,533.492z"/>
		</g>
	</g>
</g>
<g id="Layer_5" style="display:none;">
	<g style="display:inline;">
		<path d="M535.59,396.219l-14.319-7.914c-2.407-1.33-3.288-4.388-1.957-6.795l20.8-37.632c1.33-2.407,4.388-3.288,6.795-1.957
			l14.319,7.914c2.407,1.33,3.288,4.388,1.957,6.795l-20.8,37.632C541.055,396.668,537.997,397.549,535.59,396.219z"/>
		<path d="M580.904,310.91c-0.51-1.769-1.674-3.231-3.276-4.117l-2.996-1.657c-3.321-1.835-7.513-0.627-9.348,2.693l-28.754,52.022
			c-0.887,1.603-1.094,3.46-0.584,5.229s1.673,3.231,3.276,4.117l2.997,1.657c1.028,0.568,2.16,0.857,3.307,0.857
			c0.642,0,1.288-0.091,1.923-0.273c1.77-0.51,3.231-1.673,4.117-3.277l28.754-52.022
			C581.206,314.537,581.414,312.679,580.904,310.91z"/>
		<path d="M40.425,360.347h-64.471c-17.775,0-32.235,14.461-32.235,32.235s14.461,32.235,32.235,32.235
			c0,4.41,0.892,8.614,2.501,12.445c-9.721,2.252-21.652,3.672-32.05,3.672c-23.72,0-45.62-7.928-63.201-21.268
			c11.574-7.936,15.651-22.6,10.658-35.08c-12.488-31.222-12.488-65.612,0.001-96.834c5.014-12.536,0.868-27.175-10.659-35.079
			c17.58-13.339,39.481-21.268,63.201-21.268c8.775,0,18.622,1.02,27.327,2.691c8.932,1.986,17.448,5.092,25.386,9.173
			c2.426-5.776,8.51-9.984,14.818-10.022c-8.619-5.233-17.932-9.43-27.764-12.422c0.027-0.013,0.053-0.028,0.08-0.041
			c-0.769-0.211-1.548-0.414-2.332-0.613c-8.928-2.53-18.263-4.079-27.891-4.494c0.001,0.001,0.001,0.003,0.002,0.004
			c-3.413-0.258-6.663-0.393-9.625-0.393c-66.811,0-120.882,54.065-120.882,120.882c0,66.811,54.065,120.882,120.882,120.882
			c12.159,0,29.47-1.883,43.032-6.041c5.288,3.796,11.761,6.041,18.752,6.041c17.775,0,32.235-14.461,32.235-32.235
			c17.775,0,32.235-14.461,32.235-32.235S58.199,360.347,40.425,360.347z M-121.101,390.574c3.02,7.553-1.407,15.535-8.523,17.599
			c-17.8-18.787-28.735-44.14-28.735-72.002c0-27.862,10.935-53.215,28.735-72.002c7.11,2.063,11.546,10.039,8.524,17.599
			C-135.134,316.849-135.134,355.49-121.101,390.574z M8.19,440.935c-8.887,0-16.118-7.23-16.118-16.118h32.235
			C24.307,433.705,17.077,440.935,8.19,440.935z M40.425,408.7h-64.471c-8.887,0-16.118-7.23-16.118-16.118
			s7.23-16.118,16.118-16.118h64.471c8.887,0,16.118,7.23,16.118,16.118S49.312,408.7,40.425,408.7z"/>
		<path d="M-7.514,234.251c-2.955,2.922-5.39,6.464-7.08,10.537c-16.417-6.812-35.316,1.003-42.128,17.42
			c-6.812,16.417,1.003,35.316,17.42,42.128l59.548,24.707c16.417,6.812,35.316-1.003,42.128-17.42
			c6.812-16.417-1.003-35.316-17.42-42.128c6.812-16.417-1.003-35.316-17.42-42.128c-6.457-2.679-13.297-3.087-19.636-1.607
			C1.296,227.6-4.481,231.406-7.514,234.251z M21.357,242.254c8.209,3.406,12.116,12.855,8.71,21.064L0.293,250.965
			C3.699,242.756,13.148,238.848,21.357,242.254z M38.777,284.382c8.209,3.406,12.116,12.855,8.71,21.064
			c-3.406,8.209-12.855,12.116-21.064,8.71l-59.548-24.707c-8.209-3.406-12.116-12.855-8.71-21.064
			c3.406-8.209,12.855-12.116,21.064-8.71L38.777,284.382z"/>
		<path d="M118.936,329.11c4.729,0,8.802-1.675,12.104-4.979c3.304-3.304,4.979-7.376,4.979-12.105c0-2.354-0.443-4.596-1.32-6.667
			c-0.869-2.047-2.101-3.876-3.66-5.44c-1.561-1.557-3.39-2.787-5.439-3.658c-2.069-0.876-4.312-1.32-6.664-1.32
			s-4.595,0.444-6.667,1.321c-2.051,0.872-3.881,2.102-5.438,3.659c-1.562,1.562-2.793,3.393-3.658,5.438
			c-0.877,2.063-1.321,4.306-1.321,6.667c0,4.731,1.676,8.804,4.979,12.104C110.131,327.435,114.203,329.11,118.936,329.11z
			 M121.138,314.063c-0.653,0.622-1.353,0.912-2.202,0.912c-0.837,0-1.478-0.268-2.081-0.873c-0.601-0.599-0.868-1.239-0.868-2.076
			c0-0.849,0.29-1.549,0.913-2.203c0.597-0.627,1.225-0.906,2.036-0.906c0.824,0,1.511,0.302,2.159,0.95
			c0.657,0.657,0.95,1.323,0.95,2.159C122.045,312.838,121.766,313.465,121.138,314.063z"/>
		<path d="M287.696,329.11c4.729,0,8.802-1.675,12.104-4.979c3.304-3.304,4.979-7.376,4.979-12.105c0-2.354-0.443-4.596-1.32-6.667
			c-0.869-2.047-2.101-3.876-3.66-5.44c-1.561-1.557-3.39-2.787-5.439-3.658c-2.069-0.876-4.312-1.32-6.664-1.32
			s-4.595,0.444-6.667,1.321c-2.051,0.872-3.881,2.102-5.438,3.659c-1.561,1.562-2.792,3.393-3.657,5.438
			c-0.877,2.063-1.321,4.306-1.321,6.667c0,4.731,1.676,8.804,4.979,12.104C278.891,327.435,282.963,329.11,287.696,329.11z
			 M289.898,314.063c-0.653,0.622-1.353,0.912-2.202,0.912c-0.837,0-1.478-0.268-2.081-0.873c-0.601-0.599-0.868-1.239-0.868-2.076
			c0-0.849,0.29-1.549,0.913-2.203c0.597-0.627,1.225-0.906,2.036-0.906c0.824,0,1.511,0.302,2.159,0.95
			c0.657,0.657,0.95,1.323,0.95,2.159C290.805,312.838,290.526,313.465,289.898,314.063z"/>
		<path d="M584.927,290.927l-0.745-0.412c-3.322-1.835-7.514-0.626-9.347,2.692l-2.98,5.392c-1.835,3.319-0.627,7.512,2.692,9.347
			l0.745,0.412c1.052,0.581,2.191,0.857,3.315,0.857c2.425,0,4.778-1.282,6.031-3.549l2.98-5.392
			C589.455,296.955,588.247,292.762,584.927,290.927z"/>
		<path d="M535.536,384.903c-1.59-1.817-3.764-2.777-6.288-2.777c-1.632,0-3.148,0.42-4.513,1.25
			c-1.392,0.854-2.473,2.112-3.199,3.714c-2.391,5.09-5.156,9.963-8.221,14.484c-3.086,4.55-6.455,8.979-10.012,13.166
			c-3.586,4.217-7.318,8.296-11.095,12.125c-2.27,2.302-4.521,4.575-6.755,6.82c0.356-6.193,0.774-12.171,1.25-17.839
			c0.643-7.65,1.262-14.403,1.839-20.069c0.088-0.868,0.181-2.042,0.268-3.41c0.301-3.359,0.643-7.176,0.826-9.336l0.961-11.463
			c0.363-4.385,0.41-5.497,0.41-5.976c0-2.212-0.745-4.192-2.218-5.889c-1.539-1.768-3.576-2.702-5.892-2.702
			c-2.495,0-4.572,0.812-6.175,2.415c-1.51,1.509-2.422,3.307-2.717,5.382c-0.664,5.276-1.074,13.106-1.578,19.153
			c-0.023,14.989-3.668,27.26-10.272,34.385c1.64,1.918,2.904,4.107,3.628,6.342c1.014,3.135,0.711,7.02-0.445,10.307
			c1.109-0.981,2.172-2.03,3.178-3.162c-0.121,2.16-0.235,4.367-0.344,6.61c-0.254,5.2-0.482,10.235-0.687,15.104
			c-3.705,4.376-7.398,9.265-10.984,14.544c-3.767,5.539-7.369,11.461-10.706,17.6c-3.333,6.127-6.464,12.498-9.307,18.936
			c-2.857,6.469-5.341,12.939-7.383,19.23c-2.052,6.316-3.668,12.539-4.806,18.494c-1.146,5.999-1.727,11.71-1.727,16.976
			c0,9.928,2.226,17.831,6.614,23.488c4.54,5.854,11.082,8.821,19.444,8.821c5.075,0,9.588-1.302,13.416-3.871
			c3.69-2.482,6.949-5.908,9.685-10.183c2.673-4.177,4.899-9.157,6.616-14.805c1.684-5.541,3.031-11.562,4.006-17.896
			c0.967-6.28,1.676-12.961,2.108-19.857c0.429-6.896,0.646-13.849,0.646-20.669c0-8.304-0.217-16.306-0.645-23.784
			c-0.404-7.004-0.421-14.078-0.049-21.04c4.152-4.637,8.56-9.316,13.112-13.919c4.835-4.89,9.658-9.984,14.338-15.143
			c4.729-5.214,9.311-10.805,13.621-16.62c4.352-5.878,8.263-12.433,11.626-19.482l0.041-0.091c0.453-1.057,0.683-2.197,0.683-3.39
			C537.838,388.658,537.064,386.648,535.536,384.903z M466.501,533.492c-0.939,8.933-2.34,16.631-4.161,22.88
			c-1.771,6.074-3.944,10.778-6.457,13.981c-2.246,2.862-4.67,4.253-7.409,4.253c-3.06,0-5.121-1.104-6.488-3.478
			c-1.587-2.75-2.391-6.724-2.391-11.812c0-5.233,0.787-11.3,2.34-18.029c1.569-6.799,3.801-14.022,6.633-21.469
			c2.835-7.458,6.272-15.079,10.218-22.651c2.696-5.18,5.606-10.232,8.689-15.094c0.065,2.436,0.138,4.818,0.216,7.132
			c0.159,4.65,0.239,9.312,0.239,13.858C467.93,514.252,467.449,524.489,466.501,533.492z"/>
		<path d="M427.13,397c0.41-2.037,7.361-15.468,7.329-31.407c-0.004-2.212-0.745-4.192-2.218-5.889
			c-1.539-1.768-3.576-2.702-5.892-2.702c-2.495,0-4.572,0.812-6.175,2.415c-1.51,1.509-2.422,3.307-2.717,5.382
			c-0.445,3.539-0.776,8.228-1.098,12.757v0c-2.468,16.334-19.297,32.87-24.229,37.8c-3.598,3.344-7.551,6.591-11.783,9.712
			c-1.102,0.793-2.256,1.612-3.449,2.459c-5.064,3.489-10.601,6.695-16.553,9.537c0.019-2.512,0.049-5.239,0.09-8.154
			c0.008-0.608,0.015-1.229,0.023-1.844c-0.081,0.115-0.17,0.224-0.254,0.337c0.017-2.757,0.027-5.561,0.027-8.4v-28.763
			c5.762-10.4,11.26-21.093,16.347-31.787c5.206-10.952,9.799-22.314,13.652-33.771c3.866-11.484,6.97-23.517,9.227-35.763
			c2.26-12.279,3.406-25.157,3.406-38.275c0-6.277-0.441-12.388-1.312-18.163c-0.887-5.87-2.354-11.08-4.363-15.488
			c-2.076-4.554-4.846-8.255-8.234-11.002c-3.544-2.869-7.901-4.323-12.952-4.323c-6.491,0-11.895,2.969-16.061,8.824
			c-3.868,5.44-6.943,13.38-9.142,23.6c-2.15,9.993-3.731,22.408-4.697,36.9c-0.96,14.39-1.608,30.985-1.928,49.312
			c-0.215,9.556-0.377,19.838-0.482,30.561c-0.107,10.738-0.215,21.664-0.32,32.775c-0.008,0.874-0.016,1.753-0.024,2.628
			c-0.12,0.2-0.248,0.392-0.354,0.605c-3.26,6.521-6.615,12.513-9.972,17.811c-3.339,5.267-6.685,9.827-9.947,13.554
			c-3.205,3.664-6.354,6.538-9.362,8.543c-2.769,1.848-5.43,2.784-7.907,2.784c-1.547,0-3.202-0.282-4.919-0.841
			c-1.551-0.502-3.077-1.563-4.536-3.155c-1.512-1.649-2.787-4.062-3.792-7.175c-1.036-3.204-1.562-7.556-1.562-12.934
			c0-4.114,0.134-8.68,0.396-13.569c0.264-4.928,0.586-9.646,0.957-14.026l0.961-11.463c0.363-4.385,0.41-5.497,0.41-5.976
			c0-2.212-0.745-4.192-2.218-5.889c-1.539-1.768-3.576-2.702-5.892-2.702c-2.495,0-4.572,0.812-6.175,2.415
			c-1.51,1.509-2.422,3.307-2.717,5.382c-1.115,8.862-1.514,24.932-2.844,27.652c-7.567,15.481-19.462,33-36.904,56.249
			c0.081-4.821-0.02-7.168,0.254-11.811c0.345-5.856,2.481-18.891,3.815-28.153c2.047-7.77,2.362-15.715,0.834-23.149
			c-2.422-11.777-9.092-20.912-18.782-25.723c-9.69-4.812-20.999-4.604-31.845,0.584c-10.139,4.851-18.738,13.592-24.211,24.614
			c-3.717,7.485-5.719,15.482-5.916,23.292c-1.665,9.366-4.49,11.928-6.806,15.05c-2.9,3.91-6.354,6.538-9.362,8.543
			c-2.769,1.848-5.43,2.784-7.907,2.784c-1.547,0-3.202-0.282-4.919-0.841c-1.551-0.502-3.077-1.563-4.536-3.155
			c-1.512-1.649-2.787-4.062-3.792-7.175c-1.036-3.204-1.562-7.556-1.562-12.934c0-4.114,0.134-8.68,0.396-13.569
			c0.264-4.928,0.586-9.646,0.957-14.026l0.961-11.463c0.363-4.385,0.41-5.497,0.41-5.976c0-2.212-0.745-4.192-2.218-5.889
			c-1.539-1.768-3.576-2.702-5.892-2.702c-2.495,0-4.572,0.812-6.175,2.415c-1.51,1.509-2.422,3.307-2.717,5.382
			c-1.927,15.315-2.904,30.896-2.904,46.31c0,5.536,0.648,10.793,1.926,15.623c1.302,4.931,3.325,9.285,6.011,12.941
			c2.709,3.691,6.078,6.678,10.013,8.876c3.993,2.231,8.663,3.362,13.88,3.362c4.112,0,8.209-1.005,12.177-2.988
			c3.818-1.911,7.505-4.434,10.958-7.497c2.716-2.41,5.332-5.106,7.817-8.019c3.295,4.961,7.692,8.906,13.005,11.544
			c4.653,2.311,9.68,3.464,14.85,3.464c5.595,0,11.358-1.352,16.996-4.048c2.564-1.227,5.028-2.703,7.369-4.401
			c-0.082,3.812-0.14,7.812-0.17,11.992c-0.027,3.61-0.06,7.259-0.099,10.922c-2.746,3.443-5.472,7.151-8.138,11.076
			c-3.767,5.539-7.369,11.461-10.706,17.6c-3.333,6.127-6.464,12.498-9.307,18.936c-2.857,6.469-5.341,12.938-7.383,19.229
			c-2.052,6.316-3.668,12.539-4.806,18.494c-1.146,5.999-1.727,11.71-1.727,16.976c0,9.928,2.226,17.831,6.614,23.488
			c4.54,5.854,11.082,8.821,19.444,8.821c5.075,0,9.588-1.302,13.416-3.871c3.69-2.482,6.949-5.908,9.685-10.183
			c2.673-4.177,4.899-9.157,6.616-14.805c1.684-5.541,3.031-11.562,4.006-17.896c0.967-6.28,1.676-12.961,2.108-19.857
			c0.429-6.896,0.646-13.849,0.646-20.669c0-8.304-0.217-16.306-0.645-23.784c-0.248-4.288-0.332-8.601-0.288-12.9
			c11.739-14.493,22.102-26.222,29.946-38.132c2.189-3.323,4.257-6.58,6.204-9.766c0.089,0.366,0.173,0.734,0.269,1.096
			c1.302,4.931,3.325,9.285,6.011,12.941c2.709,3.691,6.078,6.678,10.013,8.876c3.993,2.231,8.663,3.362,13.88,3.362
			c4.112,0,8.209-1.005,12.177-2.988c3.818-1.911,7.505-4.434,10.958-7.497c3.398-3.016,6.652-6.464,9.671-10.249
			c1.623-2.037,3.178-4.097,4.666-6.163l-0.135,26.806c0.071-0.062,0.147-0.118,0.219-0.179c-0.065,8.761-0.11,17.431-0.131,25.796
			l-0.057,23.159c-0.033,13.34,0.071,25.843,0.31,37.161c0.239,11.464,1.201,21.586,2.857,30.081
			c1.698,8.717,4.446,15.694,8.167,20.738c3.996,5.413,9.679,8.166,16.894,8.184c4.897,0.012,9.335-1.407,13.19-4.219
			c3.705-2.709,6.892-6.452,9.473-11.127c2.522-4.568,4.454-10.001,5.746-16.147c1.272-6.072,1.924-12.63,1.941-19.493
			c0.018-7.486-0.702-15.428-2.143-23.604c-1.439-8.161-3.612-16.362-6.46-24.378c-2.849-8.019-6.481-15.852-10.794-23.282
			c-3.75-6.456-8.123-12.475-13.026-17.934c6.888-3.343,13.219-6.983,18.889-10.861c0.003-0.002,0.006-0.003,0.009-0.006
			c0.013-0.01,0.028-0.021,0.042-0.03c0.772-0.529,1.534-1.061,2.281-1.598c4.97-3.575,9.533-7.289,13.648-11.084
			c-0.048-0.011-0.093-0.027-0.141-0.039C409.513,422.627,427.13,397,427.13,397z M360.633,352.129
			c0.052-3.602,0.133-7.036,0.239-10.211c0.105-3.205,0.187-6.509,0.241-9.818c0.053-3.304,0.132-7.09,0.24-11.419
			c0-2.021,0.025-5.055,0.08-9.103c0.052-3.99,0.159-8.693,0.319-13.979c0.16-5.257,0.402-10.954,0.719-16.932
			c0.32-6.025,0.749-12.088,1.276-18.022c0.525-5.941,1.193-11.745,1.987-17.252c0.785-5.441,1.761-10.299,2.9-14.438
			c1.104-4.017,2.409-7.245,3.877-9.594c1.67-2.672,3.039-2.672,3.489-2.672c1.336,0,2.463,0.538,3.541,1.689
			c1.303,1.396,2.416,3.415,3.311,6.002c0.952,2.755,1.667,6.163,2.124,10.128c0.467,4.053,0.704,8.647,0.704,13.656
			c0,10.084-0.745,20.261-2.216,30.246c-1.476,10-3.557,19.929-6.187,29.512c-2.639,9.594-5.816,19.02-9.445,28.013
			c-2.264,5.611-4.684,11.097-7.23,16.397C360.613,353.569,360.622,352.835,360.633,352.129z M221.647,534.199
			c-0.939,8.933-2.34,16.631-4.161,22.88c-1.771,6.074-3.944,10.778-6.457,13.981c-2.246,2.862-4.67,4.253-7.409,4.253
			c-3.06,0-5.121-1.104-6.488-3.478c-1.587-2.75-2.391-6.724-2.391-11.812c0-5.233,0.787-11.3,2.34-18.029
			c1.569-6.799,3.801-14.022,6.633-21.469c2.835-7.458,6.272-15.079,10.218-22.651c2.696-5.18,5.606-10.232,8.689-15.094
			c0.065,2.436,0.138,4.818,0.216,7.132c0.159,4.65,0.239,9.312,0.239,13.858C223.076,514.958,222.596,525.196,221.647,534.199z
			 M221.672,407.026c-3.793,7.639-9.589,13.618-16.321,16.839c-6.024,2.882-12.043,3.129-16.948,0.693
			c-4.904-2.435-8.345-7.379-9.69-13.921c-1.503-7.31-0.242-15.542,3.551-23.181c3.793-7.639,9.589-13.619,16.321-16.839
			c3.279-1.568,6.556-2.356,9.652-2.356c2.594,0,5.061,0.553,7.296,1.663c4.904,2.435,8.346,7.379,9.691,13.921
			C226.727,391.155,225.466,399.386,221.672,407.026z M377.206,499.483c2.434,6.839,4.268,13.846,5.448,20.828
			c1.182,6.99,1.774,13.751,1.758,20.095c-0.006,2.453-0.225,5.737-0.651,9.756c-0.421,3.947-1.184,7.874-2.272,11.671
			c-1.047,3.658-2.525,6.851-4.391,9.49c-1.573,2.224-3.42,3.257-5.815,3.251c-0.888-0.002-3.588-0.009-5.755-5.561
			c-1.772-4.541-3.107-10.642-3.965-18.137c-0.877-7.639-1.362-16.368-1.442-25.944c-0.083-9.611-0.112-19.523-0.088-29.461
			c0.012-4.917,0.053-10.274,0.119-15.925c0.044-3.836,0.078-7.871,0.1-12.056c2.915,3.738,5.579,7.777,7.958,12.069
			C371.742,485.938,374.77,492.641,377.206,499.483z"/>
		<path d="M475.725,401.199c-1.172,0.052-2.305-0.034-3.392-0.237c-0.64,2.044-1.453,4.074-2.441,6.064
			c-3.793,7.639-9.589,13.618-16.321,16.839c-3.278,1.568-6.555,2.356-9.652,2.356c-2.594,0-5.061-0.553-7.296-1.663
			c-4.904-2.435-8.345-7.379-9.69-13.921c-1.268-6.166-0.562-12.986,1.964-19.554c-2.988-0.819-5.772-2.281-7.859-4.197
			c-1.738-1.595-3.063-3.847-3.914-6.244c-0.024,0.048-0.051,0.095-0.075,0.143c-5.275,10.623-6.983,22.297-4.809,32.872
			c2.295,11.162,8.586,19.804,17.713,24.336c4.313,2.141,9.012,3.228,13.966,3.228c5.394,0,10.819-1.287,16.125-3.825
			c9.739-4.659,18.008-13.076,23.283-23.699c2.991-6.023,4.767-13.884,5.407-20.191
			C485.462,397.163,480.636,400.979,475.725,401.199z"/>
		<path d="M109.272,404.577c-1.172,0.052-2.305-0.034-3.392-0.237c-0.64,2.044-1.453,4.074-2.441,6.064
			c-3.793,7.639-9.589,13.618-16.321,16.839c-3.278,1.568-6.555,2.356-9.652,2.356c-1.276,0-2.821,2.985-2.74,4.787
			c0.16,3.562-1.036,6.912-3.065,9.687c1.89,0.345,3.826,0.526,5.805,0.526c5.394,0,10.819-1.287,16.125-3.825
			c9.739-4.659,18.008-13.076,23.283-23.699c2.991-6.023,4.767-13.884,5.407-20.191
			C119.009,400.541,114.183,404.357,109.272,404.577z"/>
		<g>
			<polygon points="77.543,444.594 28.392,444.615 28.392,429.615 78.976,429.615 			"/>
		</g>
	</g>
</g>
<g id="Layer_6">
	<g>
		<path d="M40.425,360.347h-64.471c-17.775,0-32.235,14.461-32.235,32.235s14.461,32.235,32.235,32.235
			c0,4.41,0.892,8.614,2.501,12.445c-9.721,2.252-21.652,3.672-32.05,3.672c-23.72,0-45.62-7.928-63.201-21.268
			c11.574-7.936,15.651-22.6,10.658-35.08c-12.488-31.222-12.488-65.612,0.001-96.834c5.014-12.536,0.868-27.175-10.659-35.079
			c17.58-13.339,39.481-21.268,63.201-21.268c8.775,0,18.622,1.02,27.327,2.691c8.932,1.986,17.448,5.092,25.386,9.173
			c2.426-5.776,8.51-9.984,14.818-10.022c-8.619-5.233-17.932-9.43-27.764-12.422c0.027-0.013,0.053-0.028,0.08-0.041
			c-0.769-0.211-1.548-0.414-2.332-0.613c-8.928-2.53-18.263-4.079-27.891-4.494c0.001,0.001,0.001,0.003,0.002,0.004
			c-3.413-0.258-6.663-0.393-9.625-0.393c-66.811,0-120.882,54.065-120.882,120.882c0,66.811,54.065,120.882,120.882,120.882
			c12.159,0,29.47-1.883,43.032-6.041c5.288,3.796,11.761,6.041,18.752,6.041c17.775,0,32.235-14.461,32.235-32.235
			c17.775,0,32.235-14.461,32.235-32.235S58.199,360.347,40.425,360.347z M-121.101,390.574c3.02,7.553-1.407,15.535-8.523,17.599
			c-17.8-18.787-28.735-44.14-28.735-72.002c0-27.862,10.935-53.215,28.735-72.002c7.11,2.063,11.546,10.039,8.524,17.599
			C-135.134,316.849-135.134,355.49-121.101,390.574z M8.19,440.935c-8.887,0-16.118-7.23-16.118-16.118h32.235
			C24.307,433.705,17.077,440.935,8.19,440.935z M40.425,408.7h-64.471c-8.887,0-16.118-7.23-16.118-16.118
			s7.23-16.118,16.118-16.118h64.471c8.887,0,16.118,7.23,16.118,16.118S49.312,408.7,40.425,408.7z"/>
		<path d="M-7.514,234.251c-2.955,2.922-5.39,6.464-7.08,10.537c-16.417-6.812-35.316,1.003-42.128,17.42
			c-6.812,16.417,1.003,35.316,17.42,42.128l59.548,24.707c16.417,6.812,35.316-1.003,42.128-17.42
			c6.812-16.417-1.003-35.316-17.42-42.128c6.812-16.417-1.003-35.316-17.42-42.128c-6.457-2.679-13.297-3.087-19.636-1.607
			C1.296,227.6-4.481,231.406-7.514,234.251z M21.357,242.254c8.209,3.406,12.116,12.855,8.71,21.064L0.293,250.965
			C3.699,242.756,13.148,238.848,21.357,242.254z M38.777,284.382c8.209,3.406,12.116,12.855,8.71,21.064
			c-3.406,8.209-12.855,12.116-21.064,8.71l-59.548-24.707c-8.209-3.406-12.116-12.855-8.71-21.064
			c3.406-8.209,12.855-12.116,21.064-8.71L38.777,284.382z"/>
		<g>
			<path d="M118.936,329.11c4.729,0,8.802-1.675,12.104-4.979c3.304-3.304,4.979-7.376,4.979-12.105c0-2.354-0.443-4.596-1.32-6.667
				c-0.869-2.047-2.101-3.876-3.66-5.44c-1.561-1.557-3.39-2.787-5.439-3.658c-2.069-0.876-4.312-1.32-6.664-1.32
				s-4.595,0.444-6.667,1.321c-2.051,0.872-3.881,2.102-5.438,3.659c-1.562,1.562-2.793,3.393-3.658,5.438
				c-0.877,2.063-1.321,4.306-1.321,6.667c0,4.731,1.676,8.804,4.979,12.104C110.131,327.435,114.203,329.11,118.936,329.11z
				 M116.9,309.823c0.597-0.627,1.225-0.906,2.036-0.906c0.824,0,1.511,0.302,2.159,0.95c0.657,0.657,0.95,1.323,0.95,2.159
				c0,0.812-0.279,1.439-0.907,2.037c-0.653,0.622-1.353,0.912-2.202,0.912c-0.837,0-1.478-0.268-2.081-0.873
				c-0.601-0.599-0.868-1.239-0.868-2.076C115.987,311.177,116.277,310.478,116.9,309.823z"/>
			<path d="M287.696,329.11c4.729,0,8.802-1.675,12.104-4.979c3.304-3.304,4.979-7.376,4.979-12.105c0-2.354-0.443-4.596-1.32-6.667
				c-0.869-2.047-2.101-3.876-3.66-5.44c-1.561-1.557-3.39-2.787-5.439-3.658c-2.069-0.876-4.312-1.32-6.664-1.32
				s-4.595,0.444-6.667,1.321c-2.051,0.872-3.881,2.102-5.438,3.659c-1.561,1.562-2.792,3.393-3.657,5.438
				c-0.877,2.063-1.321,4.306-1.321,6.667c0,4.731,1.676,8.804,4.979,12.104C278.891,327.435,282.963,329.11,287.696,329.11z
				 M285.659,309.823c0.597-0.627,1.225-0.906,2.036-0.906c0.824,0,1.511,0.302,2.159,0.95c0.657,0.657,0.95,1.323,0.95,2.159
				c0,0.812-0.279,1.439-0.907,2.037c-0.653,0.622-1.353,0.912-2.202,0.912c-0.837,0-1.478-0.268-2.081-0.873
				c-0.601-0.599-0.868-1.239-0.868-2.076C284.746,311.177,285.036,310.478,285.659,309.823z"/>
			<path d="M584.927,290.927l-0.745-0.412c-3.322-1.835-7.514-0.626-9.347,2.692l-2.98,5.392c-1.001,1.81-1.09,3.878-0.432,5.683
				c-2.462-0.039-4.867,1.245-6.139,3.547l-18.754,33.93c-2.341-1.05-5.154-0.165-6.416,2.119l-20.8,37.632
				c-1.28,2.317-0.497,5.22,1.708,6.622c-2.273,4.71-4.854,9.233-7.707,13.442c-3.086,4.55-6.455,8.979-10.012,13.166
				c-3.586,4.217-7.318,8.296-11.095,12.125c-2.27,2.302-4.521,4.575-6.755,6.82c0.356-6.193,0.774-12.171,1.25-17.839
				c0.643-7.65,1.262-14.403,1.839-20.069c0.062-0.612,0.126-1.384,0.19-2.261c0-0.003,0.001-0.007,0.001-0.01c0,0,0,0,0,0.001
				c0.026-0.363,0.052-0.74,0.078-1.139c0.301-3.359,0.643-7.176,0.826-9.336l0.961-11.463c0.363-4.385,0.41-5.497,0.41-5.976
				c0-2.212-0.745-4.192-2.218-5.889c-1.539-1.768-3.576-2.702-5.892-2.702c-2.495,0-4.572,0.812-6.175,2.415
				c-1.51,1.509-2.422,3.307-2.717,5.382c-0.664,5.276-1.074,13.106-1.578,19.153c-0.02,12.671-2.636,23.385-7.432,30.704
				c-3.249,3.995-7.147,7.16-11.427,9.207c-3.278,1.568-6.555,2.356-9.652,2.356c-2.594,0-5.061-0.553-7.296-1.663
				c-4.904-2.435-8.345-7.379-9.69-13.921c-0.908-4.415-0.786-9.165,0.273-13.919c0.848-2.77,7.284-15.783,7.253-31.125
				c-0.004-2.212-0.745-4.192-2.218-5.889c-1.539-1.768-3.576-2.702-5.892-2.702c-2.495,0-4.572,0.812-6.175,2.415
				c-1.51,1.509-2.422,3.307-2.717,5.382c-0.445,3.539-0.776,8.228-1.098,12.757v0c-2.468,16.334-19.297,32.87-24.229,37.8
				c-3.598,3.344-7.551,6.591-11.783,9.712c-1.102,0.793-2.256,1.612-3.449,2.459c-5.064,3.489-10.601,6.695-16.553,9.537
				c0.019-2.512,0.049-5.239,0.09-8.154c0.008-0.608,0.015-1.229,0.023-1.844c-0.081,0.115-0.17,0.224-0.254,0.337
				c0.017-2.757,0.027-5.561,0.027-8.4v-28.763c5.762-10.4,11.26-21.093,16.347-31.787c5.206-10.952,9.799-22.314,13.652-33.771
				c3.866-11.484,6.97-23.517,9.227-35.763c2.26-12.279,3.406-25.157,3.406-38.275c0-6.277-0.441-12.388-1.312-18.163
				c-0.887-5.87-2.354-11.08-4.363-15.488c-2.076-4.554-4.846-8.255-8.234-11.002c-3.544-2.869-7.901-4.323-12.952-4.323
				c-6.491,0-11.895,2.969-16.061,8.824c-3.868,5.44-6.943,13.38-9.142,23.6c-2.15,9.993-3.731,22.408-4.697,36.9
				c-0.96,14.39-1.608,30.985-1.928,49.312c-0.215,9.556-0.377,19.838-0.482,30.561c-0.107,10.738-0.215,21.664-0.32,32.775
				c-0.008,0.874-0.016,1.753-0.024,2.628c-0.12,0.2-0.248,0.392-0.354,0.605c-3.26,6.521-6.615,12.513-9.972,17.811
				c-3.339,5.267-6.685,9.827-9.947,13.554c-3.205,3.664-6.354,6.538-9.362,8.543c-2.769,1.848-5.43,2.784-7.907,2.784
				c-1.547,0-3.202-0.282-4.919-0.841c-1.551-0.502-3.077-1.563-4.536-3.155c-1.512-1.649-2.787-4.062-3.792-7.175
				c-1.036-3.204-1.562-7.556-1.562-12.934c0-4.114,0.134-8.68,0.396-13.569c0.264-4.928,0.586-9.646,0.957-14.026l0.961-11.463
				c0.363-4.385,0.41-5.497,0.41-5.976c0-2.212-0.745-4.192-2.218-5.889c-1.539-1.768-3.576-2.702-5.892-2.702
				c-2.495,0-4.572,0.812-6.175,2.415c-1.51,1.509-2.422,3.307-2.717,5.382c-1.115,8.862-1.514,24.932-2.844,27.652
				c-7.567,15.481-19.462,33-36.904,56.249c0.081-4.821-0.02-7.168,0.254-11.811c0.345-5.856,2.481-18.891,3.815-28.153
				c2.047-7.77,2.362-15.715,0.834-23.149c-2.422-11.777-9.092-20.912-18.782-25.723c-9.69-4.812-20.999-4.604-31.845,0.584
				c-10.139,4.851-18.738,13.592-24.211,24.614c-3.717,7.485-5.719,15.482-5.916,23.292c-1.665,9.366-4.49,11.928-6.806,15.05
				c-2.9,3.91-6.354,6.538-9.362,8.543c-2.769,1.848-5.43,2.784-7.907,2.784c-1.547,0-3.202-0.282-4.919-0.841
				c-1.551-0.502-3.077-1.563-4.536-3.155c-1.512-1.649-2.787-4.062-3.792-7.175c-1.036-3.204-1.562-7.556-1.562-12.934
				c0-4.114,0.134-8.68,0.396-13.569c0.264-4.928,0.586-9.646,0.957-14.026l0.961-11.463c0.363-4.385,0.41-5.497,0.41-5.976
				c0-2.212-0.745-4.192-2.218-5.889c-1.539-1.768-3.576-2.702-5.892-2.702c-2.495,0-4.572,0.812-6.175,2.415
				c-1.51,1.509-2.422,3.307-2.717,5.382c-1.927,15.315-2.904,30.896-2.904,46.31c0,0.24,0.008,0.477,0.011,0.716
				c-0.479,1.259-1.016,2.511-1.629,3.745c-3.793,7.639-9.589,13.618-16.321,16.839c-3.278,1.568-6.555,2.356-9.652,2.356
				c-0.039,0-0.078,0.011-0.117,0.016H28.392v15l48.878-0.021c0.065,0,0.13,0.004,0.195,0.004c5.394,0,10.819-1.287,16.125-3.825
				c5.94-2.842,11.328-7.088,15.829-12.373c1.015,2.205,2.208,4.247,3.574,6.106c2.709,3.691,6.078,6.678,10.013,8.876
				c3.993,2.231,8.663,3.362,13.88,3.362c4.112,0,8.209-1.005,12.177-2.988c3.818-1.911,7.505-4.434,10.958-7.497
				c2.716-2.41,5.332-5.106,7.817-8.019c3.295,4.961,7.692,8.906,13.005,11.544c4.653,2.311,9.68,3.464,14.85,3.464
				c5.595,0,11.358-1.352,16.996-4.048c2.564-1.227,5.028-2.703,7.369-4.401c-0.082,3.812-0.14,7.812-0.17,11.992
				c-0.027,3.61-0.06,7.259-0.099,10.922c-2.746,3.443-5.472,7.151-8.138,11.076c-3.767,5.539-7.369,11.461-10.706,17.6
				c-3.333,6.127-6.464,12.498-9.307,18.936c-2.857,6.469-5.341,12.938-7.383,19.229c-2.052,6.316-3.668,12.539-4.806,18.494
				c-1.146,5.999-1.727,11.71-1.727,16.976c0,9.928,2.226,17.831,6.614,23.488c4.54,5.854,11.082,8.821,19.444,8.821
				c5.075,0,9.588-1.302,13.416-3.871c3.69-2.482,6.949-5.908,9.685-10.183c2.673-4.177,4.899-9.157,6.616-14.805
				c1.684-5.541,3.031-11.562,4.006-17.896c0.967-6.28,1.676-12.961,2.108-19.857c0.429-6.896,0.646-13.849,0.646-20.669
				c0-8.304-0.217-16.306-0.645-23.784c-0.248-4.288-0.332-8.601-0.288-12.9c11.739-14.493,22.102-26.222,29.946-38.132
				c2.189-3.323,4.257-6.58,6.204-9.766c0.089,0.366,0.173,0.734,0.269,1.096c1.302,4.931,3.325,9.285,6.011,12.941
				c2.709,3.691,6.078,6.678,10.013,8.876c3.993,2.231,8.663,3.362,13.88,3.362c4.112,0,8.209-1.005,12.177-2.988
				c3.818-1.911,7.505-4.434,10.958-7.497c3.398-3.016,6.652-6.464,9.671-10.249c1.623-2.037,3.178-4.097,4.666-6.163l-0.135,26.806
				c0.071-0.062,0.147-0.118,0.219-0.179c-0.065,8.761-0.11,17.431-0.131,25.796l-0.057,23.159
				c-0.033,13.34,0.071,25.843,0.31,37.161c0.239,11.464,1.201,21.586,2.857,30.081c1.698,8.717,4.446,15.694,8.167,20.738
				c3.996,5.413,9.679,8.166,16.894,8.184c4.897,0.012,9.335-1.407,13.19-4.219c3.705-2.709,6.892-6.452,9.473-11.127
				c2.522-4.568,4.454-10.001,5.746-16.147c1.272-6.072,1.924-12.63,1.941-19.493c0.018-7.486-0.702-15.428-2.143-23.604
				c-1.439-8.161-3.612-16.362-6.46-24.378c-2.849-8.019-6.481-15.852-10.794-23.282c-3.75-6.456-8.123-12.475-13.026-17.934
				c6.888-3.343,13.219-6.983,18.889-10.861c0.003-0.002,0.006-0.003,0.009-0.006c0.013-0.01,0.028-0.021,0.042-0.03
				c0.772-0.529,1.534-1.061,2.281-1.598c4.97-3.575,9.533-7.289,13.648-11.084c-0.048-0.011-0.093-0.027-0.141-0.039
				c1.978-1.819,5.446-6.178,9.107-11.06c2.751,9.67,8.68,17.157,16.949,21.262c4.313,2.141,9.012,3.228,13.966,3.228
				c5.394,0,10.819-1.287,16.125-3.825c1.903-0.911,3.748-1.969,5.528-3.155c-0.076,0.25-0.147,0.502-0.233,0.746
				c0.767-0.679,1.504-1.405,2.224-2.154c0.314-0.234,0.629-0.468,0.938-0.71c-0.115,2.066-0.224,4.171-0.328,6.312
				c-0.254,5.2-0.482,10.235-0.687,15.104c-3.705,4.376-7.398,9.265-10.984,14.544c-3.767,5.539-7.369,11.461-10.706,17.6
				c-3.333,6.127-6.464,12.498-9.307,18.936c-2.857,6.469-5.341,12.939-7.383,19.23c-2.052,6.316-3.668,12.539-4.806,18.494
				c-1.146,5.999-1.727,11.71-1.727,16.976c0,9.928,2.226,17.831,6.614,23.488c4.54,5.854,11.082,8.821,19.444,8.821
				c5.075,0,9.588-1.302,13.416-3.871c3.69-2.482,6.949-5.908,9.685-10.183c2.673-4.177,4.899-9.157,6.616-14.805
				c1.684-5.541,3.031-11.562,4.006-17.896c0.967-6.28,1.676-12.961,2.108-19.857c0.429-6.896,0.646-13.849,0.646-20.669
				c0-8.304-0.217-16.306-0.645-23.784c-0.404-7.004-0.421-14.078-0.049-21.04c4.152-4.637,8.56-9.316,13.112-13.919
				c4.835-4.89,9.658-9.984,14.338-15.143c4.729-5.214,9.311-10.805,13.621-16.62c3.92-5.296,7.479-11.144,10.606-17.406
				c2.315,0.963,5.05,0.071,6.29-2.173l20.8-37.632c1.263-2.284,0.516-5.136-1.619-6.56l18.754-33.93
				c0.887-1.603,1.094-3.46,0.584-5.229c-0.193-0.67-0.481-1.295-0.85-1.862c1.88-0.403,3.585-1.572,4.585-3.382l2.98-5.392
				C589.455,296.955,588.247,292.762,584.927,290.927z M360.633,352.129c0.052-3.602,0.133-7.036,0.239-10.211
				c0.105-3.205,0.187-6.509,0.241-9.818c0.053-3.304,0.132-7.09,0.24-11.419c0-2.021,0.025-5.055,0.08-9.103
				c0.052-3.99,0.159-8.693,0.319-13.979c0.16-5.257,0.402-10.954,0.719-16.932c0.32-6.025,0.749-12.088,1.276-18.022
				c0.525-5.941,1.193-11.745,1.987-17.252c0.785-5.441,1.761-10.299,2.9-14.438c1.104-4.017,2.409-7.245,3.877-9.594
				c1.67-2.672,3.039-2.672,3.489-2.672c1.336,0,2.463,0.538,3.541,1.689c1.303,1.396,2.416,3.415,3.311,6.002
				c0.952,2.755,1.667,6.163,2.124,10.128c0.467,4.053,0.704,8.647,0.704,13.656c0,10.084-0.745,20.261-2.216,30.246
				c-1.476,10-3.557,19.929-6.187,29.512c-2.639,9.594-5.816,19.02-9.445,28.013c-2.264,5.611-4.684,11.097-7.23,16.397
				C360.613,353.569,360.622,352.835,360.633,352.129z M221.647,534.199c-0.939,8.933-2.34,16.631-4.161,22.88
				c-1.771,6.074-3.944,10.778-6.457,13.981c-2.246,2.862-4.67,4.253-7.409,4.253c-3.06,0-5.121-1.104-6.488-3.478
				c-1.587-2.75-2.391-6.724-2.391-11.812c0-5.233,0.787-11.3,2.34-18.029c1.569-6.799,3.801-14.022,6.633-21.469
				c2.835-7.458,6.272-15.079,10.218-22.651c2.696-5.18,5.606-10.232,8.689-15.094c0.065,2.436,0.138,4.818,0.216,7.132
				c0.159,4.65,0.239,9.312,0.239,13.858C223.076,514.958,222.596,525.196,221.647,534.199z M221.672,407.026
				c-3.793,7.639-9.589,13.618-16.321,16.839c-6.024,2.882-12.043,3.129-16.948,0.693c-4.904-2.435-8.345-7.379-9.69-13.921
				c-1.503-7.31-0.242-15.542,3.551-23.181c3.793-7.639,9.589-13.619,16.321-16.839c3.279-1.568,6.556-2.356,9.652-2.356
				c2.594,0,5.061,0.553,7.296,1.663c4.904,2.435,8.346,7.379,9.691,13.921C226.727,391.155,225.466,399.386,221.672,407.026z
				 M377.206,499.483c2.434,6.839,4.268,13.846,5.448,20.828c1.182,6.99,1.774,13.751,1.758,20.095
				c-0.006,2.453-0.225,5.737-0.651,9.756c-0.421,3.947-1.184,7.874-2.272,11.671c-1.047,3.658-2.525,6.851-4.391,9.49
				c-1.573,2.224-3.42,3.257-5.815,3.251c-0.888-0.002-3.588-0.009-5.755-5.561c-1.772-4.541-3.107-10.642-3.965-18.137
				c-0.877-7.639-1.362-16.368-1.442-25.944c-0.083-9.611-0.112-19.523-0.088-29.461c0.012-4.917,0.053-10.274,0.119-15.925
				c0.044-3.836,0.078-7.871,0.1-12.056c2.915,3.738,5.579,7.777,7.958,12.069C371.742,485.938,374.77,492.641,377.206,499.483z
				 M466.501,533.492c-0.939,8.933-2.34,16.631-4.161,22.88c-1.771,6.074-3.944,10.778-6.457,13.981
				c-2.246,2.862-4.67,4.253-7.409,4.253c-3.06,0-5.121-1.104-6.488-3.478c-1.587-2.75-2.391-6.724-2.391-11.812
				c0-5.233,0.787-11.3,2.34-18.029c1.569-6.799,3.801-14.022,6.633-21.469c2.835-7.458,6.272-15.079,10.218-22.651
				c2.696-5.18,5.606-10.232,8.689-15.094c0.065,2.436,0.138,4.818,0.216,7.132c0.159,4.65,0.239,9.312,0.239,13.858
				C467.93,514.252,467.449,524.489,466.501,533.492z"/>
		</g>
	</g>
</g>
</svg>
